<svg xmlns="http://www.w3.org/2000/svg" width="16" height="21" viewBox="0 0 16 21">
  <g fill="#EA0A32" fill-rule="evenodd" stroke="#EA0A32" stroke-width=".5" transform="translate(1 1)">
    <path d="M1.12903226,6.56048918 L1.30985355,6.56048918 L1.30985355,16.3897358 C1.30985355,17.692407 2.32598258,18.7582289 3.56791806,18.7582289 L10.4319826,18.7582289 C11.6739181,18.7582289 12.6900471,17.692407 12.6900471,16.3897358 L12.6900471,6.56048918 L12.8708684,6.56048918 C13.5033071,6.56048918 13.9999006,6.03961016 13.9999006,5.3762426 L13.9999006,3.4342677 C13.9999006,2.77090014 13.5033071,2.25002112 12.8708684,2.25002112 L10.07132,2.25002112 L10.07132,1.51540929 C10.07132,0.804861342 9.50680387,0.212738055 8.82938452,0.212738055 L5.17064258,0.212738055 C4.49322323,0.212738055 3.9287071,0.804861342 3.9287071,1.51540929 L3.9287071,2.25002112 L1.12915871,2.25002112 C0.49672,2.25002112 0.000126451613,2.77090014 0.000126451613,3.4342677 L0.000126451613,5.3762426 C0.000126451613,6.01554627 0.519661935,6.56048918 1.12915871,6.56048918 L1.12903226,6.56048918 Z M11.786871,16.3897358 C11.786871,17.171528 11.1773742,17.8108316 10.4320323,17.8108316 L3.56796774,17.8108316 C2.82262581,17.8108316 2.21312903,17.171528 2.21312903,16.3897358 L2.21312903,6.56048918 L11.786871,6.56048918 L11.786871,16.3897358 Z M4.83180645,1.51536192 C4.83180645,1.32569772 4.98969484,1.16008795 5.17051613,1.16008795 L8.80645161,1.16008795 C8.9872729,1.16008795 9.14516129,1.32569772 9.14516129,1.51536192 L9.14516129,2.24997375 L4.83180645,2.24997375 L4.83180645,1.51536192 Z M0.903225806,3.43422033 C0.903225806,3.29174125 0.993196129,3.19737101 1.12903226,3.19737101 L12.8709677,3.19737101 C13.0068039,3.19737101 13.0967742,3.29174125 13.0967742,3.43422033 L13.0967742,5.37619523 C13.0967742,5.51867431 13.0068039,5.61304455 12.8709677,5.61304455 L1.12903226,5.61304455 C0.993196129,5.61304455 0.903225806,5.51867431 0.903225806,5.37619523 L0.903225806,3.43422033 Z"/>
    <polygon points="8.874 15.514 9.778 15.514 9.778 8.598 8.874 8.598"/>
    <polygon points="6.548 15.514 7.452 15.514 7.452 8.598 6.548 8.598"/>
    <polygon points="4.222 15.514 5.126 15.514 5.126 8.598 4.222 8.598"/>
  </g>
</svg>
