<svg xmlns="http://www.w3.org/2000/svg" width="72" height="16" viewBox="0 0 72 16">
  <g fill="#FFF" fill-rule="evenodd">
    <path d="M32.6972771 1.56328125C34.3399611 1.56328125 35.6934632 2.08776331 36.757824 3.13674316 37.8221847 4.18572302 38.3543572 5.53153476 38.3543572 7.17421875L38.3543572 9.39829102C38.3543572 11.0471274 37.8221847 12.3929391 36.757824 13.4357666 35.6934632 14.4785941 34.3399611 15 32.6972771 15L26.6525993 15 26.6525993 13.3850098 28.0830193 13.1081543 28.0830193 3.46435547 26.6525993 3.1875 26.6525993 1.56328125 32.6972771 1.56328125zM30.7777458 3.63969727L30.7777458 12.9328125 32.5588493 12.9328125C33.5247721 12.9328125 34.2815029 12.6067415 34.8290642 11.9545898 35.3766255 11.3024381 35.6504021 10.4503471 35.6504021 9.39829102L35.6504021 7.15576172C35.6504021 6.11601043 35.3766255 5.27007162 34.8290642 4.61791992 34.2815029 3.96576822 33.5247721 3.63969727 32.5588493 3.63969727L30.7777458 3.63969727zM39.7386345 9.91508789C39.7386345 8.42621326 40.1554516 7.20652331 40.9890984 6.25598145 41.8227451 5.30543958 42.97476 4.83017578 44.4451775 4.83017578 45.9217474 4.83017578 47.0768383 5.30390151 47.9104851 6.25136719 48.7441318 7.19883286 49.160949 8.42006088 49.160949 9.91508789L49.160949 10.1088867C49.160949 11.6100661 48.7441318 12.8328322 47.9104851 13.7772217 47.0768383 14.7216112 45.9278996 15.1937988 44.4636345 15.1937988 42.9809122 15.1937988 41.8227451 14.7216112 40.9890984 13.7772217 40.1554516 12.8328322 39.7386345 11.6100661 39.7386345 10.1088867L39.7386345 9.91508789zM42.4333611 10.1088867C42.4333611 11.0194381 42.5933204 11.7500217 42.9132439 12.3006592 43.2331673 12.8512967 43.7499591 13.1266113 44.4636345 13.1266113 45.1588528 13.1266113 45.6679542 12.8497586 45.9909538 12.2960449 46.3139535 11.7423312 46.4754509 11.0132858 46.4754509 10.1088867L46.4754509 9.91508789C46.4754509 9.02914596 46.3124154 8.3062528 45.9863396 7.74638672 45.6602637 7.18652064 45.1465482 6.9065918 44.4451775 6.9065918 43.7438068 6.9065918 43.2331673 7.18652064 42.9132439 7.74638672 42.5933204 8.3062528 42.4333611 9.02914596 42.4333611 9.91508789L42.4333611 10.1088867zM54.8826286 13.3850098L56.1838493 13.1081543 56.1838493 6.91582031 54.7442009 6.63896484 54.7442009 5.01474609 58.8785759 5.01474609 58.8785759 13.1081543 60.1705681 13.3850098 60.1705681 15 54.8826286 15 54.8826286 13.3850098zM58.8785759 2.62456055L56.1838493 2.62456055 56.1838493.603515625 58.8785759.603515625 58.8785759 2.62456055zM65.0339958 2.56918945L65.0339958 5.01474609 66.7874138 5.01474609 66.7874138 6.9065918 65.0339958 6.9065918 65.0339958 11.9915039C65.0339958 12.3791035 65.1139755 12.6559562 65.2739372 12.8220703 65.433899 12.9881844 65.6492288 13.0712402 65.9199333 13.0712402 66.1045046 13.0712402 66.266002 13.0635499 66.4044304 13.0481689 66.5428588 13.032788 66.698204 13.0066408 66.8704704 12.9697266L67.1011833 14.9169434C66.799717 15.009229 66.5013313 15.0784422 66.2060173 15.124585 65.9107033 15.1707278 65.5907847 15.1937988 65.2462517 15.1937988 64.3172431 15.1937988 63.6020403 14.9384791 63.1006218 14.427832 62.5992033 13.9171849 62.3484978 13.1081598 62.3484978 12.0007324L62.3484978 6.9065918 60.8811638 6.9065918 60.8811638 5.01474609 62.3484978 5.01474609 62.3484978 2.56918945 65.0339958 2.56918945zM71.4016716 15L68.7161736 15 68.7161736 12.6375 71.4016716 12.6375 71.4016716 15zM16.9268959.621181187C16.5715416.269130081 15.9892532.269130081 15.633922.621181187L7.40859949 8.5425604C7.05324519 8.89461151 6.4709567 8.89461151 6.11562555 8.5425604L3.29191064 5.74509333C2.93655634 5.39304222 2.35426785 5.39304222 1.9989367 5.74509333L.266515727 7.46230562C-.0888385755 7.81435672-.0888385755 8.39123255.266515727 8.74326072L6.11578758 14.5372441C6.47114188 14.8892952 7.05343037 14.8892952 7.40876152 14.5372441L18.6594102 3.61866062C19.0147645 3.26660951 19.0147645 2.68973369 18.6594102 2.33770551L16.9268959.621181187z"/>
  </g>
</svg>
